HIERARCHY
ROOT Hips
{
	OFFSET 0.000000 0.000000 0.000000
	CHANNELS 6 Xposition Yposition Zposition Zrotation Yrotation Xrotation 
	JOINT LHipJoint
	{
		OFFSET 0.000000 0.000000 0.000000
		CHANNELS 3 Zrotation Yrotation Xrotation
		JOINT LeftUpLeg
		{
			OFFSET 1.363060 -1.794630 0.839290
			CHANNELS 3 Zrotation Yrotation Xrotation
			JOINT LeftLeg
			{
				OFFSET 2.448110 -6.726130 0.000000
				CHANNELS 3 Zrotation Yrotation Xrotation
				JOINT LeftFoot
				{
					OFFSET 2.562200 -7.039590 0.000000
					CHANNELS 3 Zrotation Yrotation Xrotation
					JOINT LeftToeBase
					{
						OFFSET 0.157640 -0.433110 2.322550
						CHANNELS 3 Zrotation Yrotation Xrotation
						End Site
						{
							OFFSET 0.000000 0.000000 0.000000
						}
					}
				}
			}
		}
	}
	JOINT RHipJoint
	{
		OFFSET 0.000000 0.000000 0.000000
		CHANNELS 3 Zrotation Yrotation Xrotation
		JOINT RightUpLeg
		{
			OFFSET -1.305520 -1.794630 0.839290
			CHANNELS 3 Zrotation Yrotation Xrotation
			JOINT RightLeg
			{
				OFFSET -2.542530 -6.985550 0.000000
				CHANNELS 3 Zrotation Yrotation Xrotation
				JOINT RightFoot
				{
					OFFSET -2.568260 -7.056230 0.000000
					CHANNELS 3 Zrotation Yrotation Xrotation
					JOINT RightToeBase
					{
						OFFSET -0.164730 -0.452590 2.363150
						CHANNELS 3 Zrotation Yrotation Xrotation
						End Site
						{
							OFFSET 0.000000 0.000000 0.000000
						}
					}
				}
			}
		}
	}
	JOINT LowerBack
	{
		OFFSET 0.000000 0.000000 0.000000
		CHANNELS 3 Zrotation Yrotation Xrotation
		JOINT Spine
		{
			OFFSET 0.028270 2.035590 -0.193380
			CHANNELS 3 Zrotation Yrotation Xrotation
			JOINT Spine1
			{
				OFFSET 0.056720 2.048850 -0.042750
				CHANNELS 3 Zrotation Yrotation Xrotation
				JOINT Neck
				{
					OFFSET 0.000000 0.000000 0.000000
					CHANNELS 3 Zrotation Yrotation Xrotation
					JOINT Neck1
					{
						OFFSET -0.054170 1.746240 0.172020
						CHANNELS 3 Zrotation Yrotation Xrotation
						JOINT Head
						{
							OFFSET 0.104070 1.761360 -0.123970
							CHANNELS 3 Zrotation Yrotation Xrotation
							End Site
							{
								OFFSET 0.000000 0.000000 0.000000
							}
						}
					}
				}
				JOINT LeftShoulder
				{
					OFFSET 0.000000 0.000000 0.000000
					CHANNELS 3 Zrotation Yrotation Xrotation
					JOINT LeftArm
					{
						OFFSET 3.362410 1.200890 -0.311210
						CHANNELS 3 Zrotation Yrotation Xrotation
						JOINT LeftForeArm
						{
							OFFSET 4.983000 -0.000000 -0.000000
							CHANNELS 3 Zrotation Yrotation Xrotation
							JOINT LeftHand
							{
								OFFSET 3.483560 -0.000000 -0.000000
								CHANNELS 3 Zrotation Yrotation Xrotation
								JOINT LeftFingerBase
								{
									OFFSET 0.000000 0.000000 0.000000
									CHANNELS 3 Zrotation Yrotation Xrotation
									JOINT LeftHandIndex1
									{
										OFFSET 0.715260 -0.000000 -0.000000
										CHANNELS 3 Zrotation Yrotation Xrotation
										End Site
										{
											OFFSET 0.000000 0.000000 0.000000
										}
									}
								}
								JOINT LThumb
								{
									OFFSET 0.000000 0.000000 0.000000
									CHANNELS 3 Zrotation Yrotation Xrotation
									End Site
									{
										OFFSET 0.000000 0.000000 0.000000
									}
								}
							}
						}
					}
				}
				JOINT RightShoulder
				{
					OFFSET 0.000000 0.000000 0.000000
					CHANNELS 3 Zrotation Yrotation Xrotation
					JOINT RightArm
					{
						OFFSET -3.136600 1.374050 -0.404650
						CHANNELS 3 Zrotation Yrotation Xrotation
						JOINT RightForeArm
						{
							OFFSET -5.241900 -0.000000 -0.000000
							CHANNELS 3 Zrotation Yrotation Xrotation
							JOINT RightHand
							{
								OFFSET -3.444170 -0.000000 -0.000000
								CHANNELS 3 Zrotation Yrotation Xrotation
								JOINT RightFingerBase
								{
									OFFSET 0.000000 0.000000 0.000000
									CHANNELS 3 Zrotation Yrotation Xrotation
									JOINT RightHandIndex1
									{
										OFFSET -0.622530 -0.000000 -0.000000
										CHANNELS 3 Zrotation Yrotation Xrotation
										End Site
										{
											OFFSET 0.000000 0.000000 0.000000
										}
									}
								}
								JOINT RThumb
								{
									OFFSET 0.000000 0.000000 0.000000
									CHANNELS 3 Zrotation Yrotation Xrotation
									End Site
									{
										OFFSET 0.000000 0.000000 0.000000
									}
								}
							}
						}
					}
				}
			}
		}
	}
}
MOTION
Frames: 8
Frame Time: 0.008333
-0.268839 17.107923 -0.682015 -26.614695 83.351963 -27.605695 -10.001817 2.129093 0.572251 -16.991611 18.776378 -23.875136 -2.402212 -0.169564 16.136511 2.752388 14.975361 -11.922551 -1.087100 0.000000 -2.411799 10.568207 -4.481073 -0.422458 -2.310498 -14.273316 6.139614 0.174181 -2.521369 32.613686 0.308508 15.745138 21.764354 7.337499 0.000000 -85.806800 -1.496447 1.078767 -2.697850 -0.609109 1.116488 -2.653583 -3.802224 1.039290 3.438314 8.543219 -13.312498 -10.616313 -0.408034 0.013361 -0.785603 0.000000 0.000000 0.000000 -6.440459 31.325873 1.454945 -80.681187 23.446512 -13.323302 -4.308074 -9.963580 -0.017876 -3.045046 7.330384 -0.191877 -0.095616 -0.097297 -0.000000 0.000000 0.000000 0.000000 0.000000 0.000000 0.000000 5.215501 -7.899966 0.668322 34.046489 12.520949 -0.178615 1.676282 39.907006 0.009397 0.659330 6.257801 0.034398 0.057873 -0.183465 0.000000 0.000000 0.000000 0.000000 0.000000 0.000000 0.000000 
-0.112713 17.098134 -0.710149 -28.113856 83.733521 -29.135850 -9.964568 2.204207 0.564699 -17.012358 18.515124 -23.604269 -2.396102 -0.085495 17.043253 2.734064 14.819121 -12.196815 -1.166000 0.000000 -1.310200 10.749620 -4.393129 -0.492733 -2.803812 -14.652996 4.846908 -0.043616 -2.602416 35.358972 0.135310 15.762484 23.344063 7.807801 -0.000000 -84.825100 -1.806393 0.918568 -2.608207 -0.672739 0.980189 -2.649192 -3.831603 0.903097 3.399289 8.698766 -13.364027 -10.642015 -0.426352 0.012552 -0.793465 0.000000 0.000000 0.000000 -6.377775 31.018830 1.462911 -80.489077 22.981903 -13.188541 -4.298073 -9.897212 -0.017472 -2.953227 7.260130 -0.184069 -0.095660 -0.094865 -0.000000 0.000000 0.000000 0.000000 0.000000 0.000000 0.000000 5.411604 -7.999652 0.664637 34.473594 12.182915 -0.347788 1.704617 39.960514 0.009540 0.623196 6.256805 0.032208 0.060248 -0.181662 0.000000 0.000000 0.000000 0.000000 0.000000 0.000000 0.000000 
0.040055 17.087934 -0.738750 -30.182590 84.150942 -31.225159 -9.918598 2.273780 0.556057 -17.038917 18.239888 -23.323873 -2.392517 -0.006802 17.918552 2.707512 14.605864 -12.485823 -1.244400 0.000000 -0.371199 10.926734 -4.287172 -0.579195 -3.219335 -15.053820 3.525407 -0.246131 -2.674413 38.043423 -0.049831 15.133270 24.632193 7.881901 -0.000000 -83.431100 -2.090682 0.748041 -2.495635 -0.730039 0.832240 -2.641143 -3.858077 0.755440 3.355842 8.835458 -13.420223 -10.669397 -0.446351 0.011647 -0.801785 0.000000 0.000000 0.000000 -6.302780 30.663979 1.472449 -80.267928 22.433931 -13.015640 -4.283849 -9.855240 -0.016899 -2.812222 7.139440 -0.171957 -0.095898 -0.091774 -0.000000 0.000000 0.000000 0.000000 0.000000 0.000000 0.000000 5.588987 -8.107365 0.659045 34.969341 11.814208 -0.502698 1.734109 40.025809 0.009673 0.565576 6.270705 0.028919 0.062936 -0.179964 0.000000 0.000000 0.000000 0.000000 0.000000 0.000000 0.000000 
0.189837 17.077602 -0.768267 -33.035071 84.590638 -34.094786 -9.864066 2.334688 0.545477 -17.059078 17.954222 -23.002251 -2.389604 0.062300 18.729031 2.674632 14.346035 -12.795239 178.676300 -0.000000 -0.382100 11.099186 -4.167985 -0.682454 -3.558244 -15.473666 2.199852 -0.431434 -2.742927 40.619331 -0.243388 13.825089 25.550094 7.497200 0.000000 -81.716500 -2.337560 0.570389 -2.358594 -0.779084 0.675006 -2.628192 -3.882837 0.598865 3.311354 8.955641 -13.492732 -10.698815 -0.468228 0.010636 -0.810707 0.000000 0.000000 0.000000 -6.214353 30.274279 1.481612 -80.018437 21.795009 -12.820066 -4.265366 -9.822655 -0.016161 -2.617042 6.969388 -0.155741 -0.096346 -0.088051 -0.000000 0.000000 0.000000 0.000000 0.000000 0.000000 0.000000 5.757659 -8.235821 0.651591 35.513614 11.431087 -0.621478 1.764370 40.093428 0.009790 0.486911 6.299613 0.024431 0.065882 -0.178260 0.000000 0.000000 0.000000 0.000000 0.000000 0.000000 0.000000 
0.337181 17.067560 -0.799758 -37.093026 85.017358 -38.160092 -9.805682 2.377926 0.531703 -17.047424 17.684050 -22.649489 -2.385069 0.117261 19.470686 2.636151 14.038547 -13.142571 178.592000 -0.000000 -0.980800 11.261629 -4.048725 -0.791094 -3.781384 -15.878208 0.864916 -0.596299 -2.814201 43.051900 -0.444397 11.842812 26.022547 6.638000 0.000000 -79.691800 -2.508969 0.392543 -2.209589 -0.812687 0.512381 -2.614292 -3.907412 0.437059 3.259791 9.048799 -13.555284 -10.720311 -0.493798 0.009155 -0.817272 0.000000 0.000000 0.000000 -6.136689 29.832998 1.488557 -79.738192 21.110494 -12.548581 -4.240694 -9.858555 -0.015318 -2.372570 6.777270 -0.136722 -0.096795 -0.084000 -0.000000 0.000000 0.000000 0.000000 0.000000 0.000000 0.000000 5.903224 -8.355224 0.643235 36.110348 10.983279 -0.735848 1.797237 40.177772 0.009946 0.416109 6.336819 0.020343 0.068791 -0.176458 0.000000 0.000000 0.000000 0.000000 0.000000 0.000000 0.000000 
0.482547 17.058159 -0.833249 -42.479930 85.422349 -43.556653 -9.747330 2.401806 0.512989 -17.010102 17.425350 -22.222310 -2.376847 0.154617 20.103409 2.596139 13.712522 -13.517372 178.504400 0.000000 -1.396599 11.411169 -3.932625 -0.907268 -3.920740 -16.270565 -0.447776 -0.738692 -2.891520 45.286278 -0.652004 9.293616 25.997582 5.377000 -0.000000 -77.419101 -2.623309 0.212940 -2.044865 -0.834666 0.344226 -2.596272 -3.933016 0.270053 3.210600 9.128319 -13.637280 -10.739332 -0.522919 0.007336 -0.823151 0.000000 0.000000 0.000000 -6.056960 29.374389 1.490952 -79.426385 20.344688 -12.252520 -4.211903 -9.907530 -0.014376 -2.079421 6.553477 -0.115099 -0.097359 -0.079529 -0.000000 0.000000 0.000000 0.000000 0.000000 0.000000 0.000000 6.055225 -8.499665 0.632778 36.725052 10.531667 -0.796829 1.831448 40.249377 0.010107 0.339834 6.384885 0.015954 0.071730 -0.174396 -0.000000 0.000000 0.000000 0.000000 0.000000 0.000000 0.000000 
0.626517 17.049897 -0.869275 -49.352997 85.777155 -50.438793 -9.701489 2.400717 0.489012 -16.941409 17.192667 -21.723722 -2.363165 0.171987 20.618956 2.556905 13.381956 -13.920880 178.412600 0.000000 -1.663400 11.535055 -3.829132 -1.021773 -3.967363 -16.621147 -1.737745 -0.854856 -2.977758 47.284061 -0.865009 6.318310 25.440880 3.832900 0.000001 -74.864900 -2.677233 0.034742 -1.875701 -0.844303 0.173242 -2.576850 -3.960571 0.100262 3.161889 9.191628 -13.722235 -10.749335 -0.557016 0.004933 -0.826423 0.000000 0.000000 0.000000 -5.987925 28.896777 1.487199 -79.080924 19.522151 -11.909077 -4.179172 -9.997367 -0.013391 -1.748585 6.315010 -0.092375 -0.097937 -0.074833 -0.000000 0.000000 0.000000 0.000000 0.000000 0.000000 0.000000 6.211500 -8.651421 0.620020 37.356737 10.053772 -0.824220 1.868190 40.309031 0.010304 0.277577 6.437519 0.012365 0.074490 -0.171966 -0.000000 0.000000 0.000000 0.000000 0.000000 0.000000 0.000000 
0.769543 17.043196 -0.908119 -57.476648 86.060075 -58.571052 -9.683145 2.375701 0.460844 -16.845989 16.992759 -21.152001 -2.343982 0.170180 21.004559 2.521272 13.067548 -14.343572 178.317600 -0.000001 -1.791200 11.618027 -3.739946 -1.128331 -3.929961 -16.905129 -2.998452 -0.942862 -3.071298 49.006501 -1.080611 3.106767 24.354817 2.167800 -0.000000 -72.052600 -2.686371 -0.138472 -1.710982 -0.844803 0.003985 -2.557398 -3.990892 -0.067916 3.115416 9.241965 -13.807247 -10.747772 -0.596750 0.001851 -0.826342 0.000000 0.000000 0.000000 -5.934067 28.412748 1.475370 -78.699201 18.648594 -11.518190 -4.143956 -10.130333 -0.012405 -1.392742 6.069957 -0.069547 -0.098511 -0.070024 -0.000000 0.000000 0.000000 0.000000 0.000000 0.000000 0.000000 6.378998 -8.806771 0.604432 37.997999 9.557087 -0.819041 1.907971 40.345383 0.010542 0.236063 6.491200 0.009875 0.076994 -0.169088 -0.000000 0.000000 0.000000 0.000000 0.000000 0.000000 0.000000 
